# xmcd
#
# Track frame offsets: 
#        750
#        14567
#        21012
#        37587
#        48672
#        59232
#        70100
#        79920
#        88537
#        102562
#        110810
#        119775
#        129145
#        136942
#        148105
#        155077
#        163992
#        174867
#        183835
#        193570
#        203615
#        213497
#        221592
#        233647
#        242895
#        256995
#        264792
#        269485
#        274157
#        278822
#        283517
#        288127
#        292820
#        297517
#        302235
#        306852
#        311575
#        316295
#        318752
#        321267
#        323697
#        326167
#        328630
#        331075
#        333540
#        335977
#        338427
#        340810
#
# Disc length: 4577 seconds
#
# Revision: 1
# Processed by: cddbd v1.5.2PL0 Copyright (c) Steve Scherf et al.
# Submitted via: ExactAudioCopy v0.99pb5
#
DISCID=e611d730
DTITLE=Sonoton Authentic Series - SAS 061 - Authentic Israel
DYEAR=1996
DGENRE=Contentum
TTITLE0=Kleizmer music - My Freilach
TTITLE1=Kleizmer music - Let's Dance
TTITLE2=Kleizmer music - Sole Love
TTITLE3=Kleizmer music - Don't Worry
TTITLE4=Festivities and Dances - Hava Nagila
TTITLE5=Festivities and Dances - Toumbalalaika
TTITLE6=Festivities and Dances - Yemei Hanukah
TTITLE7=Festivities and Dances - Sevivon
TTITLE8=Festivities and Dances - Hora
TTITLE9=Festivities and Dances - Eeleh Hemdat Libi
TTITLE10=Festivities and Dances - Avi Hidlik Nerot
TTITLE11=Festivities and Dances - Rad Halaila
TTITLE12=Festivities and Dances - Hanukah, Hanukah
TTITLE13=Festivities and Dances - Kol Nidrei
TTITLE14=Festivities and Dances - Dire Geld
TTITLE15=Festivities and Dances - Hevenu Shalom Aleichem
TTITLE16=Festivities and Dances - Hineh Tov Uma Naim
TTITLE17=Festivities and Dances - Ma'Oz Zur
TTITLE18=Descriptive Music - Wignlied
TTITLE19=Descriptive Music - Doina
TTITLE20=Descriptive Music - Lower East Side
TTITLE21=Descriptive Music - Jiddish
TTITLE22=Descriptive Music - Gemalim
TTITLE23=Descriptive Music - Kinneret
TTITLE24=Descriptive Music - Jiddisher Fiddler
TTITLE25=Descriptive Music - Yemenite Pastoral
TTITLE26=Descriptive Music - 59 sec - Hava Nagila
TTITLE27=Descriptive Music - 59 sec - Toumbalalaika
TTITLE28=Descriptive Music - 59 sec - Yemei Hanukah
TTITLE29=Descriptive Music - 59 sec - Sevivon
TTITLE30=Descriptive Music - 59 sec - Eeleh Hemdat Libi
TTITLE31=Descriptive Music - 59 sec - Avi Hidlik Nerot
TTITLE32=Descriptive Music - 59 sec - Rad Halaila
TTITLE33=Descriptive Music - 59 sec - Hanukah, Hanukah
TTITLE34=Descriptive Music - 59 sec - Hevenu Shalom Aleichem
TTITLE35=Descriptive Music - 59 sec - Hineh Tov Uma Naim
TTITLE36=Descriptive Music - 59 sec - Ma'Oz Zur
TTITLE37=Descriptive Music - 29 sec - Hava Nagila
TTITLE38=Descriptive Music - 29 sec - Toumbalalaika
TTITLE39=Descriptive Music - 29 sec - Yemei Hanukah
TTITLE40=Descriptive Music - 29 sec - Sevivon
TTITLE41=Descriptive Music - 29 sec - Eeleh Hemdat Libi
TTITLE42=Descriptive Music - 29 sec - Avi Hidlik Nerot
TTITLE43=Descriptive Music - 29 sec - Rad Halaila
TTITLE44=Descriptive Music - 29 sec - Hanukah, Hanukah
TTITLE45=Descriptive Music - 29 sec - Hevenu Shalom Aleichem
TTITLE46=Descriptive Music - 29 sec - Hineh Tov Uma Naim
TTITLE47=Descriptive Music - 29 sec - Ma'Oz Zur
EXTD=YEAR: 1996
EXTT0=
EXTT1=
EXTT2=
EXTT3=
EXTT4=
EXTT5=
EXTT6=
EXTT7=
EXTT8=
EXTT9=
EXTT10=
EXTT11=
EXTT12=
EXTT13=
EXTT14=
EXTT15=
EXTT16=
EXTT17=
EXTT18=
EXTT19=
EXTT20=
EXTT21=
EXTT22=
EXTT23=
EXTT24=
EXTT25=
EXTT26=
EXTT27=
EXTT28=
EXTT29=
EXTT30=
EXTT31=
EXTT32=
EXTT33=
EXTT34=
EXTT35=
EXTT36=
EXTT37=
EXTT38=
EXTT39=
EXTT40=
EXTT41=
EXTT42=
EXTT43=
EXTT44=
EXTT45=
EXTT46=
EXTT47=
PLAYORDER=
